<svg width="25" height="24" viewBox="0 0 25 24" fill="none" xmlns="http://www.w3.org/2000/svg">
<g id="fi_10096351" clip-path="url(#clip0_222_1613)">
<g id="Style_2_copy_3">
<g id="Group">
<path id="Vector" d="M12.333 0C5.70526 0 0.333008 5.37225 0.333008 12C0.333008 18.627 5.70526 24 12.333 24C18.9608 24 24.333 18.627 24.333 12C24.333 5.37225 18.9608 0 12.333 0Z" fill="#FFFFFD"/>
</g>
<g id="Layer_x0020_1">
<path id="Vector_2" d="M5.23159 16.1707C7.07059 17.7674 9.08509 19.2517 11.7941 19.2524C11.8466 19.2524 11.8998 19.2517 11.9546 19.2502C13.6781 19.2104 15.6273 18.6284 17.1408 17.6782L17.1498 17.6722C17.3478 17.5529 17.5466 17.4187 17.7326 17.2687C17.8496 17.1824 17.9291 17.0489 17.9291 16.9087C17.9246 16.6589 17.7131 16.4909 17.4851 16.4909C17.4138 16.4902 17.3396 16.5067 17.2698 16.5404C17.1926 16.5712 17.1123 16.6064 17.0381 16.6387L16.9271 16.6852L16.7846 16.7429V16.7437C15.2283 17.3744 13.5933 17.7449 12.0806 17.7787C12.0251 17.7802 11.9696 17.7802 11.9141 17.7802C9.53509 17.7809 7.59334 16.6769 5.63584 15.5894C5.56684 15.5534 5.49709 15.5347 5.42884 15.5347C5.33959 15.5347 5.25034 15.5677 5.18434 15.6292C5.11834 15.6907 5.07934 15.7807 5.08009 15.8722C5.08009 15.9922 5.14309 16.1009 5.23159 16.1707Z" fill="#030B12"/>
<path id="Vector_3" d="M19.5825 15.6097C19.5765 15.4582 19.545 15.3435 19.4813 15.2482L19.4753 15.2385L19.4678 15.2287C19.4033 15.1582 19.3418 15.1327 19.275 15.1027C19.077 15.0262 18.7875 14.9857 18.4403 14.985C18.1898 14.985 17.913 15.009 17.6363 15.069L17.6355 15.051L17.3573 15.1432L17.3528 15.1462L17.1953 15.1972V15.204C17.01 15.2805 16.842 15.3772 16.686 15.489C16.5885 15.5625 16.5075 15.6585 16.503 15.8055C16.5008 15.8857 16.542 15.9787 16.6095 16.0335C16.677 16.0882 16.755 16.1062 16.824 16.1062C16.8413 16.1062 16.8563 16.1055 16.8705 16.1032L16.8825 16.1025L16.8938 16.1002C17.0295 16.071 17.229 16.0522 17.4615 16.0192C17.661 15.9975 17.8725 15.9802 18.0555 15.9802C18.1853 15.9802 18.3023 15.9892 18.3825 16.0065C18.423 16.0155 18.4523 16.0252 18.4695 16.0342C18.4755 16.0365 18.48 16.038 18.4815 16.0402C18.4853 16.0515 18.4898 16.08 18.489 16.1205C18.492 16.2735 18.426 16.5592 18.3375 16.8367C18.2505 17.115 18.144 17.394 18.0743 17.5792C18.057 17.622 18.048 17.6692 18.048 17.7202C18.0458 17.7945 18.0765 17.8845 18.141 17.9452C18.2033 18.0045 18.285 18.0292 18.3533 18.0292H18.3563C18.459 18.0277 18.546 17.9865 18.6218 17.928C19.3298 17.2905 19.5758 16.2735 19.5863 15.702L19.5825 15.6097Z" fill="#030B12"/>
<path id="Vector_4" d="M13.1088 8.78245C12.6925 8.81395 12.2118 8.84545 11.7318 8.9092C10.9953 9.0067 10.2595 9.1342 9.65127 9.42295C8.46702 9.90295 7.66602 10.9275 7.66602 12.4327C7.66602 14.3227 8.88252 15.2835 10.42 15.2835C10.9323 15.2835 11.3485 15.2182 11.7318 15.1237C12.3408 14.931 12.8515 14.5792 13.4613 13.938C13.813 14.418 13.909 14.643 14.5173 15.1552C14.677 15.2182 14.8375 15.2182 14.965 15.1245C15.3505 14.8035 16.0218 14.2267 16.3728 13.9065C16.534 13.779 16.501 13.5862 16.4043 13.4272C16.0533 12.9787 15.7008 12.594 15.7008 11.7285V8.8462C15.7008 7.62895 15.7968 6.5077 14.9013 5.67595C14.1655 5.00395 13.0128 4.7467 12.1165 4.7467H11.7325C10.1005 4.84195 8.37177 5.54695 7.98702 7.5652C7.92252 7.8217 8.11602 7.91695 8.24352 7.94845L10.0353 8.1727C10.228 8.14045 10.3248 7.97995 10.3555 7.82095C10.516 7.11595 11.092 6.76345 11.7325 6.6997H11.8615C12.2455 6.6997 12.661 6.8602 12.8853 7.18045C13.141 7.5652 13.1103 8.0767 13.1103 8.52595L13.1088 8.78245ZM12.757 12.5925C12.5328 13.0395 12.1488 13.3275 11.7325 13.4257C11.668 13.4257 11.5728 13.4565 11.476 13.4565C10.7725 13.4565 10.3563 12.9112 10.3563 12.1117C10.3563 11.0857 10.9653 10.6057 11.7333 10.3815C12.1495 10.2862 12.6295 10.2525 13.1103 10.2525V10.6372C13.1088 11.376 13.1403 11.952 12.757 12.5925Z" fill="#030B12"/>
</g>
</g>
</g>
<defs>
<clipPath id="clip0_222_1613">
<rect width="24" height="24" fill="white" transform="translate(0.333008)"/>
</clipPath>
</defs>
</svg>
