<svg width="24" height="24" viewBox="0 0 24 24" fill="none" xmlns="http://www.w3.org/2000/svg">
<g id="fi_4796520" clip-path="url(#clip0_188_1246)">
<g id="Error Icon">
<path id="Vector" d="M7.83749 20.6095C7.64014 20.777 7.616 21.0728 7.78353 21.2702C7.95107 21.4675 8.24689 21.4917 8.44424 21.3241C8.64158 21.1566 8.66572 20.8608 8.49819 20.6634C8.33066 20.4661 8.03483 20.4419 7.83749 20.6095Z" fill="#FF4545"/>
<path id="Vector_2" d="M13.9748 13.7162L13.1621 13.3055L12.9461 12.4994C12.9045 12.3444 12.7867 12.2213 12.6336 12.1731C12.4805 12.1248 12.3134 12.1581 12.1906 12.2613L10.1137 14.004C9.4514 13.3762 8.60333 12.9918 7.6806 12.911C6.60022 12.8162 5.54788 13.1482 4.7173 13.8451L1.45063 16.5863C0.620335 17.2829 0.110803 18.2617 0.0157876 19.3426C-0.0787124 20.4226 0.253303 21.4749 0.950569 22.3058C1.75246 23.2615 2.90418 23.7542 4.06368 23.7542C4.98472 23.7541 5.91074 23.4432 6.66979 22.8062L6.80483 22.6928C7.00349 22.5261 7.02946 22.2299 6.86273 22.0312C6.69599 21.8325 6.39983 21.8067 6.20108 21.9733L6.06604 22.0867C4.74796 23.1925 2.77602 23.0201 1.67005 21.7021C1.13404 21.0633 0.87885 20.2544 0.951459 19.4245C1.02449 18.5937 1.41613 17.8412 2.05433 17.3057L5.32101 14.5646C5.9594 14.0289 6.76846 13.7742 7.59866 13.8466C8.27099 13.9055 8.89208 14.1736 9.38858 14.6123L8.92382 15.0023C8.76529 15.1353 8.61505 15.2122 8.51343 15.2437C7.74829 14.7103 6.71699 14.7481 5.98822 15.3597L2.72151 18.1008C1.84194 18.8388 1.72691 20.155 2.46519 21.0348C2.87648 21.525 3.46729 21.7778 4.06204 21.7777C4.53449 21.7777 5.00948 21.6182 5.39887 21.2915L8.66558 18.5504C8.82604 18.4156 8.96291 18.261 9.07447 18.0886C9.54294 17.9841 9.98929 17.7963 10.3925 17.5355C10.2699 18.1862 9.94429 18.7816 9.45622 19.2363C9.26643 19.4131 9.25593 19.7102 9.43274 19.9C9.52522 19.9993 9.65066 20.0496 9.77643 20.0496C9.89108 20.0496 10.006 20.0078 10.0964 19.9235C10.831 19.2392 11.2836 18.3106 11.3708 17.3097C11.3874 17.123 11.3899 16.9349 11.3804 16.7475L14.0649 14.495C14.1858 14.3935 14.2477 14.2381 14.2296 14.0813C14.2114 13.9246 14.1157 13.7874 13.9748 13.7162ZM4.79507 20.5721C4.31221 20.9772 3.58982 20.9139 3.18463 20.4312C2.98874 20.1977 2.89551 19.9013 2.92213 19.5966C2.94871 19.2919 3.09187 19.0163 3.32521 18.8204L5.40126 17.0784C6.02591 17.6706 6.81618 18.0454 7.67741 18.1535L4.79507 20.5721ZM10.1945 16.5166C9.76494 16.877 9.24735 17.1151 8.69755 17.2053C8.69319 17.2061 8.17288 17.2572 7.91671 17.2345C7.24466 17.176 6.62362 16.9082 6.12712 16.4694L6.59198 16.0793C6.59198 16.0793 6.59207 16.0792 6.59216 16.0792C7.02168 15.719 7.64235 15.7214 8.06797 16.0853C8.14237 16.1488 8.23476 16.1875 8.33221 16.1961C8.8469 16.2412 9.33979 15.8795 9.52757 15.7219L12.2296 13.4546L12.3092 13.7515C12.3438 13.8806 12.4317 13.9888 12.551 14.0491L12.9156 14.2333L10.1945 16.5166Z" fill="#FF4545"/>
<path id="Vector_3" d="M23.4539 2.27506C22.3346 0.336594 19.847 -0.330109 17.9084 0.789219L14.2153 2.92138C13.2759 3.46372 12.6043 4.3392 12.3242 5.38583C12.2755 5.56672 12.2404 5.75159 12.2172 5.93769L9.18235 7.68988C9.04473 7.76938 8.95656 7.91305 8.94817 8.07177C8.93978 8.23048 9.01224 8.38274 9.14073 8.47625L9.86987 9.00711L9.93737 9.84617C9.95031 10.0067 10.0446 10.1495 10.1872 10.2243C10.2556 10.2603 10.3306 10.2782 10.4055 10.2782C10.4867 10.2782 10.5677 10.2571 10.6403 10.2153L12.9882 8.85969C13.5315 9.59295 14.2999 10.1187 15.1946 10.3586C15.5445 10.4523 15.8994 10.4987 16.2522 10.4987C16.9555 10.4987 17.6497 10.3142 18.2751 9.95319L21.9681 7.82103C22.9068 7.27906 23.5786 6.40358 23.8598 5.35569C24.1404 4.30855 23.9963 3.21448 23.4539 2.27506ZM10.7889 8.71681C10.7779 8.58031 10.7079 8.45539 10.5971 8.37481L10.2776 8.14213L12.8953 6.63078C12.8981 6.62919 12.9009 6.62764 12.9036 6.626L13.345 6.37119C13.8306 6.09083 14.3829 5.94594 14.9387 5.95292C14.9434 5.95302 14.948 5.95292 14.9526 5.95288C15.2093 5.95709 15.4648 5.99295 15.7128 6.05975C16.3645 6.23413 16.9296 6.6057 17.3424 7.12405L16.8168 7.42747C16.8166 7.42761 16.8163 7.42775 16.816 7.42794C16.3307 7.70759 15.7202 7.59739 15.3642 7.1653C15.302 7.08983 15.2178 7.03564 15.1233 7.01033C14.6237 6.87659 14.076 7.14716 13.8637 7.26973L12.9013 7.82534C12.9013 7.82534 12.9013 7.82534 12.9012 7.82539C12.9012 7.82544 12.9012 7.82544 12.9011 7.82544L10.814 9.03045L10.7889 8.71681ZM16.1081 5.19627L19.3667 3.31494C19.6305 3.16259 19.9384 3.12219 20.2338 3.20141C20.5292 3.28053 20.7758 3.46944 20.9281 3.73334C21.0804 3.9973 21.1208 4.30536 21.0417 4.60086C20.9626 4.89636 20.7738 5.14292 20.51 5.29522L18.163 6.65028C17.6507 5.95859 16.9375 5.45234 16.1081 5.19627ZM22.9526 5.11241C22.7365 5.91795 22.2201 6.59098 21.4985 7.00756L17.8055 9.13972C17.0838 9.55639 16.2428 9.66697 15.4377 9.45125C14.7858 9.27655 14.2208 8.90469 13.808 8.38639L14.3334 8.08306C14.5127 7.97961 14.6739 7.92997 14.7794 7.91652C15.4404 8.57473 16.4627 8.71648 17.2865 8.2408L20.9796 6.10859C21.4607 5.83086 21.805 5.38161 21.949 4.84372C22.093 4.30592 22.0193 3.74478 21.7415 3.26366C21.4637 2.78248 21.0146 2.43819 20.4769 2.29409C19.9391 2.14991 19.378 2.22359 18.897 2.50142L15.2039 4.63363C15.0224 4.73839 14.8607 4.86692 14.721 5.01734C14.2413 5.03895 13.7688 5.14644 13.3262 5.33352C13.5792 4.65997 14.0533 4.09934 14.685 3.7347L18.378 1.60255C19.868 0.742297 21.7802 1.25464 22.6404 2.74461C23.0574 3.46686 23.1682 4.3078 22.9526 5.11241Z" fill="#FF4545"/>
<path id="Vector_4" d="M4.58767 7.75818C4.67866 7.84504 4.79538 7.88817 4.91195 7.88817C5.03575 7.88817 5.15941 7.83951 5.25166 7.74285C5.43081 7.55526 5.42392 7.25798 5.23633 7.07887L4.32034 6.20423C4.1327 6.02512 3.83552 6.03187 3.65636 6.21956C3.4772 6.40715 3.4841 6.70443 3.67169 6.88354L4.58767 7.75818Z" fill="#FF4545"/>
<path id="Vector_5" d="M2.48339 10.7024L3.57347 11.1438C3.63127 11.1672 3.69094 11.1783 3.74962 11.1783C3.93525 11.1783 4.11112 11.0675 4.18505 10.8848C4.28241 10.6444 4.16644 10.3706 3.92606 10.2733L2.83598 9.83183C2.59542 9.73447 2.32172 9.85044 2.22441 10.0908C2.12705 10.3312 2.24302 10.6051 2.48339 10.7024Z" fill="#FF4545"/>
<path id="Vector_6" d="M7.59 5.84789C7.67982 5.98721 7.83089 6.06314 7.98521 6.06314C8.0723 6.06314 8.16052 6.03891 8.23918 5.98819C8.45714 5.84766 8.52 5.55704 8.37947 5.33902L7.74235 4.35052C7.60186 4.13255 7.31133 4.06965 7.09318 4.21022C6.87521 4.35075 6.81235 4.64138 6.95288 4.8594L7.59 5.84789Z" fill="#FF4545"/>
<path id="Vector_7" d="M18.9368 15.0284C18.7492 14.8493 18.452 14.8561 18.2728 15.0438C18.0937 15.2314 18.1005 15.5286 18.2881 15.7077L19.2041 16.5824C19.2951 16.6692 19.4118 16.7124 19.5284 16.7124C19.6522 16.7124 19.7759 16.6637 19.8681 16.5671C20.0473 16.3795 20.0404 16.0822 19.8528 15.9031L18.9368 15.0284Z" fill="#FF4545"/>
<path id="Vector_8" d="M21.0413 12.0843L19.9512 11.6429C19.7107 11.5455 19.437 11.6615 19.3396 11.9018C19.2423 12.1423 19.3582 12.4161 19.5986 12.5134L20.6887 12.9548C20.7465 12.9782 20.8061 12.9893 20.8648 12.9893C21.0504 12.9893 21.2263 12.8785 21.3002 12.6959C21.3976 12.4554 21.2817 12.1816 21.0413 12.0843Z" fill="#FF4545"/>
<path id="Vector_9" d="M15.9347 16.939C15.7942 16.7209 15.5036 16.658 15.2856 16.7986C15.0676 16.9392 15.0047 17.2298 15.1453 17.4477L15.7824 18.4363C15.8722 18.5757 16.0233 18.6516 16.1776 18.6516C16.2647 18.6516 16.3529 18.6274 16.4315 18.5766C16.6495 18.4361 16.7124 18.1455 16.5719 17.9275L15.9347 16.939Z" fill="#FF4545"/>
</g>
</g>
<defs>
<clipPath id="clip0_188_1246">
<rect width="24" height="24" fill="white"/>
</clipPath>
</defs>
</svg>
