<svg width="24" height="24" viewBox="0 0 24 24" fill="none" xmlns="http://www.w3.org/2000/svg">
<g id="fi_5261933" clip-path="url(#clip0_188_1529)">
<g id="Download Icon">
<path id="Vector" d="M17.3613 20.0717C17.6069 19.5377 18.0443 19.1463 18.5732 18.9619V16.9688C18.5732 15.8056 19.5195 14.8594 20.6826 14.8594H21.8906C22.1371 14.8594 22.3737 14.9023 22.5938 14.9803V2.10938C22.5938 0.946266 21.6475 0 20.4844 0H6.42188C5.25877 0 4.3125 0.946266 4.3125 2.10938V3.14062H16.4062C17.9571 3.14062 19.2188 4.40231 19.2188 5.95312V12.5156C19.2188 14.0664 17.9571 15.3281 16.4062 15.3281H4.3125V21.8906C4.3125 23.0537 5.25877 24 6.42188 24H19.111L17.6761 22.3259C17.1336 21.6929 17.0129 20.8291 17.3613 20.0717Z" fill="#9B5983"/>
<path id="Vector_2" d="M23.2956 20.25H22.5938V16.9688C22.5938 16.5804 22.279 16.2656 21.8907 16.2656H20.6826C20.2943 16.2656 19.9795 16.5804 19.9795 16.9688V20.25H19.2777C18.677 20.25 18.3529 20.9546 18.7439 21.4107L20.7528 23.7545C21.0334 24.0818 21.5399 24.0818 21.8205 23.7545L23.8294 21.4107C24.2204 20.9546 23.8963 20.25 23.2956 20.25Z" fill="#9B5983"/>
<path id="Vector_3" d="M9.00058 7.35938H8.14258C8.14356 7.93223 8.14511 8.86884 8.14511 9.22917C8.14511 9.65869 8.14783 10.5547 8.14961 11.1071C8.45411 11.1053 8.83038 11.1026 9.03123 11.0991C9.9887 11.0824 10.4248 10.1207 10.4248 9.23438C10.4248 8.32795 10.0507 7.35938 9.00058 7.35938Z" fill="#9B5983"/>
<path id="Vector_4" d="M4.44929 7.35938H3.61426C3.61515 7.66969 3.61613 8.04839 3.61613 8.21344C3.61613 8.40806 3.61782 8.77289 3.61932 9.07069C3.9083 9.06914 4.25884 9.06755 4.44929 9.06755C4.92629 9.06755 5.32927 8.67642 5.32927 8.21348C5.32927 7.75055 4.92629 7.35938 4.44929 7.35938Z" fill="#9B5983"/>
<path id="Vector_5" d="M17.8125 12.5156V5.95312C17.8125 5.17645 17.1829 4.54688 16.4062 4.54688H1.40625C0.629578 4.54688 0 5.17645 0 5.95312V12.5156C0 13.2923 0.629578 13.9219 1.40625 13.9219H16.4062C17.1829 13.9219 17.8125 13.2923 17.8125 12.5156ZM4.44923 10.005C4.25794 10.005 3.90267 10.0066 3.6128 10.0082V11.5781C3.6128 11.837 3.40294 12.0469 3.14405 12.0469C2.88516 12.0469 2.6753 11.837 2.6753 11.5781V6.89212C2.67492 6.76753 2.72414 6.64795 2.81203 6.55973C2.89997 6.47152 3.01945 6.42192 3.14405 6.42192H4.44923C5.45138 6.42192 6.26672 7.22564 6.26672 8.21348C6.26672 9.20133 5.45142 10.005 4.44923 10.005ZM10.7651 11.163C10.3427 11.7143 9.7328 12.0245 9.04763 12.0365C8.67019 12.0431 7.72434 12.0467 7.68427 12.0469C7.68366 12.0469 7.68309 12.0469 7.68248 12.0469C7.55878 12.0469 7.44009 11.998 7.35225 11.9108C7.26403 11.8232 7.2142 11.7041 7.21373 11.5798C7.21369 11.5628 7.20764 9.87361 7.20764 9.22917C7.20764 8.6947 7.20427 6.89152 7.20427 6.89147C7.20403 6.76702 7.2533 6.64753 7.34123 6.55945C7.42917 6.47137 7.54852 6.42188 7.67297 6.42188H9.00056C10.4132 6.42188 11.3623 7.55212 11.3623 9.23438C11.3623 9.97547 11.1502 10.6604 10.7651 11.163ZM14.6684 7.35938H13.2373V8.72123H14.5175C14.7764 8.72123 14.9862 8.93109 14.9862 9.18998C14.9862 9.44887 14.7764 9.65873 14.5175 9.65873H13.2373V11.5781C13.2373 11.837 13.0274 12.0469 12.7685 12.0469C12.5096 12.0469 12.2998 11.837 12.2998 11.5781V6.89062C12.2998 6.76631 12.3492 6.64706 12.4371 6.55917C12.525 6.47128 12.6442 6.42188 12.7685 6.42188H14.6684C14.9273 6.42188 15.1372 6.63173 15.1372 6.89062C15.1372 7.14952 14.9273 7.35938 14.6684 7.35938Z" fill="#9B5983"/>
</g>
</g>
<defs>
<clipPath id="clip0_188_1529">
<rect width="24" height="24" fill="white"/>
</clipPath>
</defs>
</svg>
