<svg width="25" height="24" viewBox="0 0 25 24" fill="none" xmlns="http://www.w3.org/2000/svg">
<g id="fi_8632744">
<path id="Vector" d="M12.666 14.25C14.3229 14.25 15.666 12.9069 15.666 11.25C15.666 9.59315 14.3229 8.25 12.666 8.25C11.0092 8.25 9.66602 9.59315 9.66602 11.25C9.66602 12.9069 11.0092 14.25 12.666 14.25Z" fill="#FFFFFD"/>
<path id="Vector_2" d="M21.977 9.89996C21.8411 9.73567 21.6707 9.60341 21.4779 9.51262C21.285 9.42183 21.0745 9.37476 20.8613 9.37476C20.6482 9.37476 20.4377 9.42183 20.2448 9.51262C20.0519 9.60341 19.8815 9.73567 19.7457 9.89996L16.3707 13.7062C15.9147 14.2474 15.3482 14.6847 14.7091 14.9887C14.07 15.2927 13.3733 15.4564 12.6657 15.4687C11.9505 15.4626 11.2452 15.3019 10.5979 14.9977C9.95064 14.6935 9.3768 14.2529 8.91571 13.7062L5.58196 9.95621C5.44445 9.79124 5.27246 9.65842 5.0781 9.56707C4.88374 9.47571 4.67172 9.42806 4.45696 9.42746C4.24207 9.42729 4.0298 9.4746 3.83532 9.566C3.64084 9.65741 3.46896 9.79065 3.33196 9.95621C3.04938 10.2937 2.89453 10.7198 2.89453 11.16C2.89453 11.6001 3.04938 12.0262 3.33196 12.3637L7.55821 17.3137C7.95088 17.7884 8.16571 18.3852 8.16571 19.0012V23.25H17.1207V19.0012C17.1133 18.3789 17.3273 17.7741 17.7245 17.295L21.977 12.315C22.2615 11.9769 22.4175 11.5493 22.4175 11.1075C22.4175 10.6656 22.2615 10.238 21.977 9.89996Z" fill="#FFFFFD"/>
<path id="Vector_3" d="M16.0414 3.29632C16.0194 3.23088 15.9797 3.17279 15.9268 3.12846C15.8739 3.08413 15.8097 3.05527 15.7414 3.04507L13.8664 2.76007L13.0077 0.967569C12.9778 0.902098 12.9298 0.84659 12.8693 0.807667C12.8088 0.768743 12.7384 0.748047 12.6664 0.748047C12.5945 0.748047 12.5241 0.768743 12.4635 0.807667C12.403 0.84659 12.355 0.902098 12.3252 0.967569L11.4852 2.76007L9.61017 3.04507C9.54189 3.05527 9.47774 3.08413 9.4248 3.12846C9.37187 3.17279 9.3322 3.23088 9.31017 3.29632C9.28933 3.36079 9.28635 3.4297 9.30153 3.49572C9.31672 3.56175 9.34951 3.62243 9.39642 3.67132L10.7652 5.07382L10.4427 7.05757C10.4343 7.12593 10.445 7.19527 10.4734 7.25799C10.5019 7.32071 10.547 7.37438 10.604 7.41312C10.6609 7.45185 10.7274 7.47416 10.7962 7.47759C10.865 7.48102 10.9334 7.46545 10.9939 7.43257L12.6664 6.52882L14.3389 7.45507C14.3942 7.48491 14.4561 7.50038 14.5189 7.50007C14.5967 7.50066 14.6727 7.47707 14.7364 7.43257C14.7953 7.39136 14.8411 7.33411 14.8683 7.26763C14.8956 7.20115 14.9032 7.12824 14.8902 7.05757L14.5677 5.07382L15.9364 3.67132C15.9866 3.62442 16.0229 3.56464 16.0414 3.49852C16.0599 3.43239 16.0599 3.36245 16.0414 3.29632Z" fill="#FFFFFD"/>
<path id="Vector_4" d="M8.60121 6.1012L7.85121 5.5687V4.6837C7.85002 4.61501 7.82999 4.54797 7.79329 4.48989C7.7566 4.43181 7.70465 4.38492 7.64313 4.35435C7.5816 4.32379 7.51286 4.3107 7.44441 4.31654C7.37596 4.32238 7.31042 4.34691 7.25496 4.38745L6.57246 4.87495L5.73246 4.5712C5.66548 4.54704 5.59301 4.54245 5.52352 4.55796C5.45403 4.57347 5.39039 4.60844 5.34004 4.65879C5.2897 4.70913 5.25473 4.77277 5.23922 4.84226C5.22371 4.91175 5.2283 4.98422 5.25246 5.0512L5.54121 5.9062L5.05371 6.5887C5.01317 6.64416 4.98864 6.7097 4.9828 6.77815C4.97696 6.8466 4.99004 6.91534 5.02061 6.97687C5.05118 7.03839 5.09807 7.09034 5.15615 7.12703C5.21423 7.16373 5.28127 7.18376 5.34996 7.18495H6.23496L6.76746 7.93495C6.80197 7.98342 6.84751 8.02298 6.90033 8.05036C6.95314 8.07775 7.01172 8.09218 7.07121 8.09245H7.13496C7.20436 8.08038 7.26896 8.049 7.32136 8.00191C7.37375 7.95482 7.41182 7.89393 7.43121 7.8262L7.66746 7.0087L8.48496 6.74995C8.55243 6.73047 8.61307 6.69243 8.65998 6.64017C8.70689 6.58792 8.73818 6.52354 8.75029 6.45437C8.76241 6.3852 8.75486 6.31401 8.7285 6.24892C8.70214 6.18383 8.65804 6.12745 8.60121 6.0862V6.1012Z" fill="#FFFFFD"/>
<path id="Vector_5" d="M20.2781 6.5887L19.7906 5.9062L20.0943 5.0662C20.1185 4.99922 20.1231 4.92675 20.1076 4.85726C20.092 4.78777 20.0571 4.72413 20.0067 4.67379C19.9564 4.62344 19.8927 4.58847 19.8233 4.57296C19.7538 4.55745 19.6813 4.56204 19.6143 4.5862L18.7593 4.87495L18.0768 4.38745C18.0214 4.34691 17.9558 4.32238 17.8874 4.31654C17.8189 4.3107 17.7502 4.32379 17.6886 4.35435C17.6271 4.38492 17.5752 4.43181 17.5385 4.48989C17.5018 4.54797 17.4818 4.61501 17.4806 4.6837V5.5687L16.7306 6.1012C16.6779 6.14336 16.6375 6.19896 16.6138 6.26214C16.5901 6.32532 16.5838 6.39372 16.5957 6.46015C16.6076 6.52658 16.6372 6.58857 16.6814 6.63957C16.7256 6.69058 16.7828 6.72871 16.8468 6.74995L17.6643 6.9862L17.9156 7.8187C17.9349 7.88643 17.973 7.94732 18.0254 7.99441C18.0778 8.0415 18.1424 8.07288 18.2118 8.08495H18.2756C18.3351 8.08468 18.3936 8.07025 18.4464 8.04286C18.4993 8.01548 18.5448 7.97592 18.5793 7.92745L19.1118 7.17745H19.9968C20.0655 7.17626 20.1325 7.15623 20.1906 7.11953C20.2487 7.08284 20.2956 7.03089 20.3262 6.96937C20.3567 6.90784 20.3698 6.8391 20.364 6.77065C20.3581 6.7022 20.3336 6.63666 20.2931 6.5812L20.2781 6.5887Z" fill="#FFFFFD"/>
</g>
</svg>
